<svg width="112" height="112" viewBox="0 0 112 112" fill="none" xmlns="http://www.w3.org/2000/svg">
<g filter="url(#filter0_d_225_15)">
<rect x="6" width="100" height="100" rx="24" fill="#ECDA32"/>
</g>
<path d="M83.0015 35V62C83.0015 64.13 81.8615 66.08 80.0015 67.16V71.75C80.0015 72.98 78.9815 74 77.7515 74H76.2515C75.0215 74 74.0015 72.98 74.0015 71.75V68H53.0015V71.75C53.0015 72.98 51.9815 74 50.7515 74H49.2515C48.0215 74 47.0015 72.98 47.0015 71.75V67.16C45.1715 66.08 44.0015 64.13 44.0015 62V35C44.0015 26 53.0015 26 63.5015 26C74.0015 26 83.0015 26 83.0015 35ZM56.0015 59C56.0015 57.35 54.6515 56 53.0015 56C51.3515 56 50.0015 57.35 50.0015 59C50.0015 60.65 51.3515 62 53.0015 62C54.6515 62 56.0015 60.65 56.0015 59ZM77.0015 59C77.0015 57.35 75.6515 56 74.0015 56C72.3515 56 71.0015 57.35 71.0015 59C71.0015 60.65 72.3515 62 74.0015 62C75.6515 62 77.0015 60.65 77.0015 59ZM77.0015 35H50.0015V47H77.0015V35ZM38.0015 42.5C37.9115 38.36 34.4915 35 30.3515 35.15C29.3666 35.1695 28.3951 35.3829 27.4926 35.7779C26.5901 36.1729 25.7743 36.7419 25.0917 37.4523C24.4092 38.1627 23.8733 39.0007 23.5146 39.9182C23.156 40.8358 22.9816 41.815 23.0015 42.8C23.0407 44.5016 23.6552 46.1397 24.7448 47.4473C25.8344 48.7548 27.3349 49.6546 29.0015 50V74H32.0015V50C35.5415 49.28 38.0015 46.13 38.0015 42.5Z" fill="#FEFEFE" fill-opacity="0.996078"/>
<defs>
<filter id="filter0_d_225_15" x="0" y="0" width="112" height="112" filterUnits="userSpaceOnUse" color-interpolation-filters="sRGB">
<feFlood flood-opacity="0" result="BackgroundImageFix"/>
<feColorMatrix in="SourceAlpha" type="matrix" values="0 0 0 0 0 0 0 0 0 0 0 0 0 0 0 0 0 0 127 0" result="hardAlpha"/>
<feOffset dy="6"/>
<feGaussianBlur stdDeviation="3"/>
<feComposite in2="hardAlpha" operator="out"/>
<feColorMatrix type="matrix" values="0 0 0 0 0 0 0 0 0 0 0 0 0 0 0 0 0 0 0.25 0"/>
<feBlend mode="normal" in2="BackgroundImageFix" result="effect1_dropShadow_225_15"/>
<feBlend mode="normal" in="SourceGraphic" in2="effect1_dropShadow_225_15" result="shape"/>
</filter>
</defs>
</svg>
