<svg width="56" height="58" viewBox="0 0 56 58" fill="none" xmlns="http://www.w3.org/2000/svg">
<ellipse cx="28" cy="29.0959" rx="28" ry="28.2208" fill="#E5D334"/>
<path d="M20.572 36.3845C21.2066 35.8805 21.496 35.6471 21.44 35.6845C23.2693 34.1725 24.7066 32.9311 25.752 31.9605C26.816 30.9898 27.712 29.9725 28.44 28.9085C29.168 27.8445 29.532 26.8085 29.532 25.8005C29.532 25.0351 29.3546 24.4378 29 24.0085C28.6453 23.5791 28.1133 23.3645 27.404 23.3645C26.6946 23.3645 26.1346 23.6351 25.724 24.1765C25.332 24.6991 25.136 25.4458 25.136 26.4165H20.516C20.5533 24.8298 20.8893 23.5045 21.524 22.4405C22.1773 21.3765 23.0266 20.5925 24.072 20.0885C25.136 19.5845 26.312 19.3325 27.6 19.3325C29.8213 19.3325 31.492 19.9018 32.612 21.0405C33.7506 22.1791 34.32 23.6631 34.32 25.4925C34.32 27.4898 33.6386 29.3471 32.276 31.0645C30.9133 32.7631 29.1773 34.4245 27.068 36.0485H34.628V39.9405H20.572V36.3845Z" fill="white"/>
</svg>
