<svg width="5654" height="1080" viewBox="0 0 5654 1080" fill="none" xmlns="http://www.w3.org/2000/svg">
<circle cx="633.01" cy="640.666" r="240" transform="rotate(15.8012 633.01 640.666)" fill="url(#paint0_linear_9_3)"/>
<circle cx="336.624" cy="343.624" r="105" transform="rotate(15.8012 336.624 343.624)" fill="#2669CD"/>
<path d="M1259.52 412.88V489.6H1155.36V806H1059.6V489.6H955.44V412.88H1259.52ZM1288.54 649.2C1288.54 617.093 1294.51 588.907 1306.46 564.64C1318.78 540.373 1335.39 521.707 1356.3 508.64C1377.21 495.573 1400.54 489.04 1426.3 489.04C1448.33 489.04 1467.55 493.52 1483.98 502.48C1500.78 511.44 1513.66 523.2 1522.62 537.76V493.52H1618.38V806H1522.62V761.76C1513.29 776.32 1500.22 788.08 1483.42 797.04C1466.99 806 1447.77 810.48 1425.74 810.48C1400.35 810.48 1377.21 803.947 1356.3 790.88C1335.39 777.44 1318.78 758.587 1306.46 734.32C1294.51 709.68 1288.54 681.307 1288.54 649.2ZM1522.62 649.76C1522.62 625.867 1515.9 607.013 1502.46 593.2C1489.39 579.387 1473.34 572.48 1454.3 572.48C1435.26 572.48 1419.02 579.387 1405.58 593.2C1392.51 606.64 1385.98 625.307 1385.98 649.2C1385.98 673.093 1392.51 692.133 1405.58 706.32C1419.02 720.133 1435.26 727.04 1454.3 727.04C1473.34 727.04 1489.39 720.133 1502.46 706.32C1515.9 692.507 1522.62 673.653 1522.62 649.76ZM1878.06 490.16C1914.64 490.16 1943.76 502.107 1965.42 526C1987.44 549.52 1998.46 582 1998.46 623.44V806H1903.26V636.32C1903.26 615.413 1897.84 599.173 1887.02 587.6C1876.19 576.027 1861.63 570.24 1843.34 570.24C1825.04 570.24 1810.48 576.027 1799.66 587.6C1788.83 599.173 1783.42 615.413 1783.42 636.32V806H1687.66V493.52H1783.42V534.96C1793.12 521.147 1806.19 510.32 1822.62 502.48C1839.04 494.267 1857.52 490.16 1878.06 490.16ZM2183.72 489.04C2205.75 489.04 2224.97 493.52 2241.4 502.48C2258.2 511.44 2271.08 523.2 2280.04 537.76V493.52H2375.8V805.44C2375.8 834.187 2370.01 860.133 2358.44 883.28C2347.24 906.8 2329.88 925.467 2306.36 939.28C2283.21 953.093 2254.28 960 2219.56 960C2173.27 960 2135.75 948.987 2107 926.96C2078.25 905.307 2061.83 875.813 2057.72 838.48H2152.36C2155.35 850.427 2162.44 859.76 2173.64 866.48C2184.84 873.573 2198.65 877.12 2215.08 877.12C2234.87 877.12 2250.55 871.333 2262.12 859.76C2274.07 848.56 2280.04 830.453 2280.04 805.44V761.2C2270.71 775.76 2257.83 787.707 2241.4 797.04C2224.97 806 2205.75 810.48 2183.72 810.48C2157.96 810.48 2134.63 803.947 2113.72 790.88C2092.81 777.44 2076.2 758.587 2063.88 734.32C2051.93 709.68 2045.96 681.307 2045.96 649.2C2045.96 617.093 2051.93 588.907 2063.88 564.64C2076.2 540.373 2092.81 521.707 2113.72 508.64C2134.63 495.573 2157.96 489.04 2183.72 489.04ZM2280.04 649.76C2280.04 625.867 2273.32 607.013 2259.88 593.2C2246.81 579.387 2230.76 572.48 2211.72 572.48C2192.68 572.48 2176.44 579.387 2163 593.2C2149.93 606.64 2143.4 625.307 2143.4 649.2C2143.4 673.093 2149.93 692.133 2163 706.32C2176.44 720.133 2192.68 727.04 2211.72 727.04C2230.76 727.04 2246.81 720.133 2259.88 706.32C2273.32 692.507 2280.04 673.653 2280.04 649.76ZM2739.64 644.72C2739.64 653.68 2739.08 663.013 2737.96 672.72H2521.24C2522.73 692.133 2528.89 707.067 2539.72 717.52C2550.92 727.6 2564.55 732.64 2580.6 732.64C2604.49 732.64 2621.11 722.56 2630.44 702.4H2732.36C2727.13 722.933 2717.61 741.413 2703.8 757.84C2690.36 774.267 2673.37 787.147 2652.84 796.48C2632.31 805.813 2609.35 810.48 2583.96 810.48C2553.35 810.48 2526.09 803.947 2502.2 790.88C2478.31 777.813 2459.64 759.147 2446.2 734.88C2432.76 710.613 2426.04 682.24 2426.04 649.76C2426.04 617.28 2432.57 588.907 2445.64 564.64C2459.08 540.373 2477.75 521.707 2501.64 508.64C2525.53 495.573 2552.97 489.04 2583.96 489.04C2614.2 489.04 2641.08 495.387 2664.6 508.08C2688.12 520.773 2706.41 538.88 2719.48 562.4C2732.92 585.92 2739.64 613.36 2739.64 644.72ZM2641.64 619.52C2641.64 603.093 2636.04 590.027 2624.84 580.32C2613.64 570.613 2599.64 565.76 2582.84 565.76C2566.79 565.76 2553.16 570.427 2541.96 579.76C2531.13 589.093 2524.41 602.347 2521.8 619.52H2641.64ZM2885.92 545.6C2897.12 528.427 2911.12 514.987 2927.92 505.28C2944.72 495.2 2963.38 490.16 2983.92 490.16V591.52H2957.6C2933.7 591.52 2915.78 596.747 2903.84 607.2C2891.89 617.28 2885.92 635.2 2885.92 660.96V806H2790.16V493.52H2885.92V545.6ZM3010.65 649.2C3010.65 617.093 3016.62 588.907 3028.57 564.64C3040.89 540.373 3057.5 521.707 3078.41 508.64C3099.32 495.573 3122.65 489.04 3148.41 489.04C3170.44 489.04 3189.66 493.52 3206.09 502.48C3222.89 511.44 3235.77 523.2 3244.73 537.76V493.52H3340.49V806H3244.73V761.76C3235.4 776.32 3222.33 788.08 3205.53 797.04C3189.1 806 3169.88 810.48 3147.85 810.48C3122.46 810.48 3099.32 803.947 3078.41 790.88C3057.5 777.44 3040.89 758.587 3028.57 734.32C3016.62 709.68 3010.65 681.307 3010.65 649.2ZM3244.73 649.76C3244.73 625.867 3238.01 607.013 3224.57 593.2C3211.5 579.387 3195.45 572.48 3176.41 572.48C3157.37 572.48 3141.13 579.387 3127.69 593.2C3114.62 606.64 3108.09 625.307 3108.09 649.2C3108.09 673.093 3114.62 692.133 3127.69 706.32C3141.13 720.133 3157.37 727.04 3176.41 727.04C3195.45 727.04 3211.5 720.133 3224.57 706.32C3238.01 692.507 3244.73 673.653 3244.73 649.76ZM3600.17 490.16C3636.75 490.16 3665.87 502.107 3687.53 526C3709.55 549.52 3720.57 582 3720.57 623.44V806H3625.37V636.32C3625.37 615.413 3619.95 599.173 3609.13 587.6C3598.3 576.027 3583.74 570.24 3565.45 570.24C3547.15 570.24 3532.59 576.027 3521.77 587.6C3510.94 599.173 3505.53 615.413 3505.53 636.32V806H3409.77V493.52H3505.53V534.96C3515.23 521.147 3528.3 510.32 3544.73 502.48C3561.15 494.267 3579.63 490.16 3600.17 490.16ZM3905.83 489.04C3927.86 489.04 3947.08 493.52 3963.51 502.48C3980.31 511.44 3993.19 523.2 4002.15 537.76V493.52H4097.91V805.44C4097.91 834.187 4092.12 860.133 4080.55 883.28C4069.35 906.8 4051.99 925.467 4028.47 939.28C4005.32 953.093 3976.39 960 3941.67 960C3895.38 960 3857.86 948.987 3829.11 926.96C3800.36 905.307 3783.94 875.813 3779.83 838.48H3874.47C3877.46 850.427 3884.55 859.76 3895.75 866.48C3906.95 873.573 3920.76 877.12 3937.19 877.12C3956.98 877.12 3972.66 871.333 3984.23 859.76C3996.18 848.56 4002.15 830.453 4002.15 805.44V761.2C3992.82 775.76 3979.94 787.707 3963.51 797.04C3947.08 806 3927.86 810.48 3905.83 810.48C3880.07 810.48 3856.74 803.947 3835.83 790.88C3814.92 777.44 3798.31 758.587 3785.99 734.32C3774.04 709.68 3768.07 681.307 3768.07 649.2C3768.07 617.093 3774.04 588.907 3785.99 564.64C3798.31 540.373 3814.92 521.707 3835.83 508.64C3856.74 495.573 3880.07 489.04 3905.83 489.04ZM4002.15 649.76C4002.15 625.867 3995.43 607.013 3981.99 593.2C3968.92 579.387 3952.87 572.48 3933.83 572.48C3914.79 572.48 3898.55 579.387 3885.11 593.2C3872.04 606.64 3865.51 625.307 3865.51 649.2C3865.51 673.093 3872.04 692.133 3885.11 706.32C3898.55 720.133 3914.79 727.04 3933.83 727.04C3952.87 727.04 3968.92 720.133 3981.99 706.32C3995.43 692.507 4002.15 673.653 4002.15 649.76ZM4530.58 736.56H4383.86L4360.34 806H4260.1L4402.34 412.88H4513.22L4655.46 806H4554.1L4530.58 736.56ZM4505.94 662.64L4457.22 518.72L4409.06 662.64H4505.94ZM5017.95 493.52L4821.95 954.4H4718.91L4790.59 795.36L4663.47 493.52H4770.43L4842.67 688.96L4914.35 493.52H5017.95ZM5194.82 810.48C5164.21 810.48 5136.58 803.947 5111.94 790.88C5087.67 777.813 5068.45 759.147 5054.26 734.88C5040.45 710.613 5033.54 682.24 5033.54 649.76C5033.54 617.653 5040.63 589.467 5054.82 565.2C5069.01 540.56 5088.42 521.707 5113.06 508.64C5137.7 495.573 5165.33 489.04 5195.94 489.04C5226.55 489.04 5254.18 495.573 5278.82 508.64C5303.46 521.707 5322.87 540.56 5337.06 565.2C5351.25 589.467 5358.34 617.653 5358.34 649.76C5358.34 681.867 5351.06 710.24 5336.5 734.88C5322.31 759.147 5302.71 777.813 5277.7 790.88C5253.06 803.947 5225.43 810.48 5194.82 810.48ZM5194.82 727.6C5213.11 727.6 5228.61 720.88 5241.3 707.44C5254.37 694 5260.9 674.773 5260.9 649.76C5260.9 624.747 5254.55 605.52 5241.86 592.08C5229.54 578.64 5214.23 571.92 5195.94 571.92C5177.27 571.92 5161.78 578.64 5149.46 592.08C5137.14 605.147 5130.98 624.373 5130.98 649.76C5130.98 674.773 5136.95 694 5148.9 707.44C5161.22 720.88 5176.53 727.6 5194.82 727.6Z" fill="url(#paint1_linear_9_3)"/>
<defs>
<linearGradient id="paint0_linear_9_3" x1="860.882" y1="754.695" x2="435.829" y2="523.98" gradientUnits="userSpaceOnUse">
<stop offset="0.28" stop-color="#269BCD"/>
<stop offset="1" stop-color="#2669CD"/>
</linearGradient>
<linearGradient id="paint1_linear_9_3" x1="942" y1="610" x2="5375" y2="610" gradientUnits="userSpaceOnUse">
<stop stop-color="#2669CD"/>
<stop offset="1" stop-color="#269BCD"/>
</linearGradient>
</defs>
</svg>
